<svg width="27" height="40" viewBox="0 0 27 40" fill="none" xmlns="http://www.w3.org/2000/svg">
<path d="M21 12.5C21 12.942 20.8244 13.366 20.5118 13.6785C20.1993 13.9911 19.7754 14.1667 19.3333 14.1667H9.33333L6 17.5V4.16667C6 3.72464 6.17559 3.30072 6.48816 2.98816C6.80072 2.67559 7.22464 2.5 7.66667 2.5H19.3333C19.7754 2.5 20.1993 2.67559 20.5118 2.98816C20.8244 3.30072 21 3.72464 21 4.16667V12.5Z" stroke="#344054" stroke-width="1.5" stroke-linecap="round" stroke-linejoin="round"/>
<path d="M8.07955 29H7.02273C6.96023 28.696 6.85085 28.429 6.6946 28.1989C6.54119 27.9688 6.35369 27.7756 6.1321 27.6193C5.91335 27.4602 5.67045 27.3409 5.40341 27.2614C5.13636 27.1818 4.85795 27.142 4.56818 27.142C4.03977 27.142 3.56108 27.2756 3.1321 27.5426C2.70597 27.8097 2.36648 28.2031 2.11364 28.723C1.86364 29.2429 1.73864 29.8807 1.73864 30.6364C1.73864 31.392 1.86364 32.0298 2.11364 32.5497C2.36648 33.0696 2.70597 33.4631 3.1321 33.7301C3.56108 33.9972 4.03977 34.1307 4.56818 34.1307C4.85795 34.1307 5.13636 34.0909 5.40341 34.0114C5.67045 33.9318 5.91335 33.8139 6.1321 33.6577C6.35369 33.4986 6.54119 33.304 6.6946 33.0739C6.85085 32.8409 6.96023 32.5739 7.02273 32.2727H8.07955C8 32.7187 7.85511 33.1179 7.64489 33.4702C7.43466 33.8224 7.1733 34.1222 6.8608 34.3693C6.5483 34.6136 6.19744 34.7997 5.80824 34.9276C5.42188 35.0554 5.00852 35.1193 4.56818 35.1193C3.82386 35.1193 3.16193 34.9375 2.58239 34.5739C2.00284 34.2102 1.54688 33.6932 1.21449 33.0227C0.882102 32.3523 0.715909 31.5568 0.715909 30.6364C0.715909 29.7159 0.882102 28.9205 1.21449 28.25C1.54688 27.5795 2.00284 27.0625 2.58239 26.6989C3.16193 26.3352 3.82386 26.1534 4.56818 26.1534C5.00852 26.1534 5.42188 26.2173 5.80824 26.3452C6.19744 26.473 6.5483 26.6605 6.8608 26.9077C7.1733 27.152 7.43466 27.4503 7.64489 27.8026C7.85511 28.152 8 28.5511 8.07955 29ZM10.6566 31.0625V35H9.65092V26.2727H10.6566V29.4773H10.7418C10.8952 29.1392 11.1254 28.8707 11.4322 28.6719C11.7418 28.4702 12.1538 28.3693 12.668 28.3693C13.114 28.3693 13.5046 28.4588 13.8398 28.6378C14.1751 28.8139 14.435 29.0852 14.6197 29.4517C14.8072 29.8153 14.9009 30.2784 14.9009 30.8409V35H13.8952V30.9091C13.8952 30.3892 13.7603 29.9872 13.4904 29.7031C13.2234 29.4162 12.8526 29.2727 12.3782 29.2727C12.0487 29.2727 11.7532 29.3423 11.4918 29.4815C11.2333 29.6207 11.0288 29.8239 10.8782 30.0909C10.7305 30.358 10.6566 30.6818 10.6566 31.0625ZM18.6669 35.1534C18.2521 35.1534 17.8757 35.0753 17.5376 34.919C17.1996 34.7599 16.9311 34.5312 16.7322 34.233C16.5334 33.9318 16.4339 33.5682 16.4339 33.142C16.4339 32.767 16.5078 32.4631 16.6555 32.2301C16.8033 31.9943 17.0007 31.8097 17.2479 31.6761C17.495 31.5426 17.7678 31.4432 18.0661 31.3778C18.3672 31.3097 18.6697 31.2557 18.9737 31.2159C19.3714 31.1648 19.6939 31.1264 19.9411 31.1009C20.1911 31.0724 20.3729 31.0256 20.4865 30.9602C20.603 30.8949 20.6612 30.7812 20.6612 30.6193V30.5852C20.6612 30.1648 20.5462 29.8381 20.3161 29.6051C20.0888 29.3722 19.7436 29.2557 19.2805 29.2557C18.8004 29.2557 18.424 29.3608 18.1513 29.571C17.8786 29.7812 17.6868 30.0057 17.576 30.2443L16.6214 29.9034C16.7919 29.5057 17.0192 29.196 17.3033 28.9744C17.5902 28.75 17.9027 28.5937 18.2408 28.5057C18.5817 28.4148 18.9169 28.3693 19.2464 28.3693C19.4567 28.3693 19.6982 28.3949 19.9709 28.446C20.2464 28.4943 20.5121 28.5952 20.7678 28.7486C21.0263 28.902 21.2408 29.1335 21.4112 29.4432C21.5817 29.7528 21.6669 30.1676 21.6669 30.6875V35H20.6612V34.1136H20.6101C20.5419 34.2557 20.4283 34.4077 20.2692 34.5696C20.1101 34.7315 19.8984 34.8693 19.6342 34.983C19.37 35.0966 19.0476 35.1534 18.6669 35.1534ZM18.8203 34.25C19.218 34.25 19.5533 34.1719 19.826 34.0156C20.1016 33.8594 20.3089 33.6577 20.4482 33.4105C20.5902 33.1634 20.6612 32.9034 20.6612 32.6307V31.7102C20.6186 31.7614 20.5249 31.8082 20.38 31.8509C20.2379 31.8906 20.0732 31.9261 19.8857 31.9574C19.701 31.9858 19.5206 32.0114 19.3445 32.0341C19.1712 32.054 19.0305 32.071 18.9226 32.0852C18.6612 32.1193 18.4169 32.1747 18.1896 32.2514C17.9652 32.3253 17.7834 32.4375 17.6442 32.5881C17.5078 32.7358 17.4396 32.9375 17.4396 33.1932C17.4396 33.5426 17.5689 33.8068 17.8274 33.9858C18.0888 34.1619 18.4197 34.25 18.8203 34.25ZM26.3491 28.4545V29.3068H22.957V28.4545H26.3491ZM23.9457 26.8864H24.9513V33.125C24.9513 33.4091 24.9925 33.6222 25.0749 33.7642C25.1602 33.9034 25.2681 33.9972 25.3988 34.0455C25.5323 34.0909 25.6729 34.1136 25.8207 34.1136C25.9315 34.1136 26.0224 34.108 26.0934 34.0966C26.1644 34.0824 26.2212 34.071 26.2638 34.0625L26.4684 34.9659C26.4002 34.9915 26.305 35.017 26.1829 35.0426C26.0607 35.071 25.9059 35.0852 25.7184 35.0852C25.4343 35.0852 25.1559 35.0241 24.8832 34.902C24.6133 34.7798 24.3888 34.5938 24.2099 34.3438C24.0337 34.0938 23.9457 33.7784 23.9457 33.3977V26.8864Z" fill="#344054"/>
</svg>
