<svg width="21" height="20" viewBox="0 0 21 20" fill="none" xmlns="http://www.w3.org/2000/svg">
<g clip-path="url(#clip0_2918_20993)">
<path d="M10.8125 20C16.3353 20 20.8125 15.5228 20.8125 10C20.8125 4.47715 16.3353 0 10.8125 0C5.28965 0 0.8125 4.47715 0.8125 10C0.8125 15.5228 5.28965 20 10.8125 20Z" fill="#F0F0F0"/>
<path d="M6.46484 13.4775L7.33441 19.3774C8.4177 19.7794 9.58945 19.9993 10.8127 19.9993C15.1123 19.9993 18.7777 17.2855 20.1906 13.4775H6.46484Z" fill="black"/>
<path d="M6.46484 6.52176L7.33441 0.621914C8.4177 0.219922 9.58945 0 10.8127 0C15.1123 0 18.7777 2.71375 20.1906 6.52176H6.46484Z" fill="#009739"/>
<path d="M0.8125 10.0001C0.8125 14.2997 3.52629 17.9652 7.33426 19.3781V0.62207C3.52629 2.035 0.8125 5.70043 0.8125 10.0001Z" fill="#EF3340"/>
</g>
<defs>
<clipPath id="clip0_2918_20993">
<rect width="20" height="20" fill="white" transform="translate(0.8125)"/>
</clipPath>
</defs>
</svg>
