<svg width="46" height="32" viewBox="0 0 46 32" fill="none" xmlns="http://www.w3.org/2000/svg">
<rect x="0.5" y="0.5" width="45" height="31" rx="5.5" fill="white"/>
<path fill-rule="evenodd" clip-rule="evenodd" d="M12.6965 11.1242C12.3097 11.5934 11.6909 11.9635 11.0721 11.9106C10.9948 11.2762 11.2977 10.6021 11.6522 10.1858C12.039 9.70338 12.7158 9.35975 13.2638 9.33331C13.3282 9.99415 13.0768 10.6418 12.6965 11.1242ZM13.2573 12.0361C12.7121 12.004 12.2147 12.2042 11.8129 12.366C11.5543 12.4701 11.3353 12.5582 11.1687 12.5582C10.9818 12.5582 10.7538 12.4654 10.4978 12.3611C10.1624 12.2245 9.7789 12.0683 9.37675 12.0758C8.45497 12.089 7.59764 12.6243 7.12708 13.4768C6.16018 15.1817 6.87569 17.7062 7.81036 19.0939C8.26803 19.7812 8.81594 20.5345 9.5379 20.5081C9.85552 20.4958 10.084 20.3964 10.3204 20.2936C10.5927 20.1752 10.8755 20.0521 11.317 20.0521C11.7433 20.0521 12.0137 20.1719 12.2733 20.287C12.5201 20.3963 12.7571 20.5013 13.109 20.4949C13.8567 20.4817 14.3273 19.8076 14.785 19.1203C15.2789 18.3827 15.4959 17.6628 15.5289 17.5536L15.5327 17.5409C15.5319 17.5401 15.5258 17.5373 15.5151 17.5322L15.5151 17.5322C15.3499 17.4547 14.088 16.8625 14.0759 15.2743C14.0638 13.9412 15.0769 13.2658 15.2363 13.1595L15.2364 13.1594C15.246 13.153 15.2526 13.1486 15.2555 13.1464C14.6109 12.1683 13.6053 12.0626 13.2573 12.0361ZM18.4335 20.4222V10.1197H22.2044C24.1511 10.1197 25.5112 11.4943 25.5112 13.5032C25.5112 15.5122 24.1253 16.8999 22.1528 16.8999H19.9934V20.4222H18.4335ZM19.9933 11.4678H21.7917C23.1454 11.4678 23.9189 12.208 23.9189 13.5098C23.9189 14.8117 23.1454 15.5584 21.7853 15.5584H19.9933V11.4678ZM30.6617 19.1864C30.2491 19.9927 29.3403 20.5015 28.3605 20.5015C26.9101 20.5015 25.8981 19.616 25.8981 18.2811C25.8981 16.9594 26.8779 16.1994 28.6892 16.0871L30.6359 15.9681V15.3998C30.6359 14.5606 30.1009 14.1046 29.1469 14.1046C28.3605 14.1046 27.7868 14.5209 27.6707 15.1553H26.2655C26.3106 13.8204 27.5354 12.849 29.192 12.849C30.9775 12.849 32.1378 13.8072 32.1378 15.2941V20.4222H30.6939V19.1864H30.6617ZM28.7793 19.279C27.9478 19.279 27.4192 18.8692 27.4192 18.2414C27.4192 17.5938 27.9285 17.2171 28.9018 17.1577L30.6358 17.0453V17.6269C30.6358 18.5917 29.8365 19.279 28.7793 19.279ZM36.9272 20.8253C36.3019 22.6294 35.5864 23.2242 34.0651 23.2242C33.9491 23.2242 33.5623 23.211 33.4721 23.1845V21.9488C33.5688 21.962 33.8073 21.9752 33.9298 21.9752C34.6195 21.9752 35.0063 21.6778 35.2448 20.9046L35.3866 20.4487L32.7437 12.9481H34.3745L36.2117 19.0345H36.2439L38.081 12.9481H39.6667L36.9272 20.8253Z" fill="black"/>
<rect x="0.5" y="0.5" width="45" height="31" rx="5.5" stroke="#F2F4F7"/>
</svg>
