<svg width="40" height="40" viewBox="0 0 40 40" fill="none" xmlns="http://www.w3.org/2000/svg">
<path d="M13.3332 36.6667H26.6665C33.3665 36.6667 34.5665 33.9833 34.9165 30.7167L36.1665 17.3833C36.6165 13.3167 35.4499 10 28.3332 10H11.6665C4.54987 10 3.38321 13.3167 3.83321 17.3833L5.08321 30.7167C5.43321 33.9833 6.63321 36.6667 13.3332 36.6667Z" stroke="#0068B3" stroke-width="2" stroke-miterlimit="10" stroke-linecap="round" stroke-linejoin="round"/>
<path d="M13.3335 9.99998V8.66665C13.3335 5.71665 13.3335 3.33331 18.6668 3.33331H21.3335C26.6668 3.33331 26.6668 5.71665 26.6668 8.66665V9.99998" stroke="#0068B3" stroke-width="2" stroke-miterlimit="10" stroke-linecap="round" stroke-linejoin="round"/>
<path d="M23.3332 21.6667V23.3333C23.3332 23.35 23.3332 23.35 23.3332 23.3667C23.3332 25.1833 23.3165 26.6667 19.9998 26.6667C16.6998 26.6667 16.6665 25.2 16.6665 23.3833V21.6667C16.6665 20 16.6665 20 18.3332 20H21.6665C23.3332 20 23.3332 20 23.3332 21.6667Z" stroke="#0068B3" stroke-width="2" stroke-miterlimit="10" stroke-linecap="round" stroke-linejoin="round"/>
<path d="M36.0835 18.3333C32.2335 21.1333 27.8335 22.8 23.3335 23.3666" stroke="#0068B3" stroke-width="2" stroke-miterlimit="10" stroke-linecap="round" stroke-linejoin="round"/>
<path d="M4.3667 18.7833C8.1167 21.35 12.35 22.9 16.6667 23.3833" stroke="#0068B3" stroke-width="2" stroke-miterlimit="10" stroke-linecap="round" stroke-linejoin="round"/>
</svg>
