<svg width="40" height="40" viewBox="0 0 40 40" fill="none" xmlns="http://www.w3.org/2000/svg">
<path d="M1.6665 36.6667H38.3332" stroke="#0068B3" stroke-width="2" stroke-miterlimit="10" stroke-linecap="round" stroke-linejoin="round"/>
<path d="M32.9668 36.6834V29.25" stroke="#0068B3" stroke-width="2" stroke-miterlimit="10" stroke-linecap="round" stroke-linejoin="round"/>
<path d="M33.0002 18.15C30.9669 18.15 29.3335 19.7834 29.3335 21.8167V25.6C29.3335 27.6333 30.9669 29.2667 33.0002 29.2667C35.0335 29.2667 36.6669 27.6333 36.6669 25.6V21.8167C36.6669 19.7834 35.0335 18.15 33.0002 18.15Z" stroke="#0068B3" stroke-width="2" stroke-miterlimit="10" stroke-linecap="round" stroke-linejoin="round"/>
<path d="M3.5 36.6666V10.05C3.5 6.70003 5.16675 5.01666 8.48342 5.01666H18.8667C22.1834 5.01666 23.8334 6.70003 23.8334 10.05V36.6666" stroke="#0068B3" stroke-width="2" stroke-miterlimit="10" stroke-linecap="round" stroke-linejoin="round"/>
<path d="M9.6665 13.75H17.9165" stroke="#0068B3" stroke-width="2" stroke-miterlimit="10" stroke-linecap="round" stroke-linejoin="round"/>
<path d="M9.6665 20H17.9165" stroke="#0068B3" stroke-width="2" stroke-miterlimit="10" stroke-linecap="round" stroke-linejoin="round"/>
<path d="M13.75 36.6667V30.4167" stroke="#0068B3" stroke-width="2" stroke-miterlimit="10" stroke-linecap="round" stroke-linejoin="round"/>
</svg>
