<svg width="16" height="17" viewBox="0 0 16 17" fill="none" xmlns="http://www.w3.org/2000/svg">
<path d="M14.6463 12.7197C14.6463 12.9597 14.593 13.2063 14.4797 13.4463C14.3663 13.6863 14.2197 13.913 14.0263 14.1263C13.6997 14.4863 13.3397 14.7463 12.933 14.913C12.533 15.0797 12.0997 15.1663 11.633 15.1663C10.953 15.1663 10.2263 15.0063 9.45967 14.6797C8.69301 14.353 7.92634 13.913 7.16634 13.3597C6.39967 12.7997 5.67301 12.1797 4.97967 11.493C4.29301 10.7997 3.67301 10.073 3.11967 9.31301C2.57301 8.55301 2.13301 7.79301 1.81301 7.03967C1.49301 6.27967 1.33301 5.55301 1.33301 4.85967C1.33301 4.40634 1.41301 3.97301 1.57301 3.57301C1.73301 3.16634 1.98634 2.79301 2.33967 2.45967C2.76634 2.03967 3.23301 1.83301 3.72634 1.83301C3.91301 1.83301 4.09967 1.87301 4.26634 1.95301C4.43967 2.03301 4.59301 2.15301 4.71301 2.32634L6.25967 4.50634C6.37967 4.67301 6.46634 4.82634 6.52634 4.97301C6.58634 5.11301 6.61967 5.25301 6.61967 5.37967C6.61967 5.53967 6.57301 5.69967 6.47967 5.85301C6.39301 6.00634 6.26634 6.16634 6.10634 6.32634L5.59967 6.85301C5.52634 6.92634 5.49301 7.01301 5.49301 7.11967C5.49301 7.17301 5.49967 7.21967 5.51301 7.27301C5.53301 7.32634 5.55301 7.36634 5.56634 7.40634C5.68634 7.62634 5.89301 7.91301 6.18634 8.25967C6.48634 8.60634 6.80634 8.95967 7.15301 9.31301C7.51301 9.66634 7.85967 9.99301 8.21301 10.293C8.55967 10.5863 8.84634 10.7863 9.07301 10.9063C9.10634 10.9197 9.14634 10.9397 9.19301 10.9597C9.24634 10.9797 9.29967 10.9863 9.35967 10.9863C9.47301 10.9863 9.55967 10.9463 9.63301 10.873L10.1397 10.373C10.3063 10.2063 10.4663 10.0797 10.6197 9.99967C10.773 9.90634 10.9263 9.85967 11.093 9.85967C11.2197 9.85967 11.353 9.88634 11.4997 9.94634C11.6463 10.0063 11.7997 10.093 11.9663 10.2063L14.173 11.773C14.3463 11.893 14.4663 12.033 14.5397 12.1997C14.6063 12.3663 14.6463 12.533 14.6463 12.7197Z" stroke="#101828" stroke-width="1.5" stroke-miterlimit="10"/>
</svg>
