<svg width="40" height="40" viewBox="0 0 40 40" fill="none" xmlns="http://www.w3.org/2000/svg">
<path d="M2.5 18.75H37.5" stroke="#0068B3" stroke-width="2" stroke-linecap="round" stroke-linejoin="round"/>
<path d="M35 28.75V32.5C35 32.8315 34.8683 33.1495 34.6339 33.3839C34.3995 33.6183 34.0815 33.75 33.75 33.75H30C29.6685 33.75 29.3505 33.6183 29.1161 33.3839C28.8817 33.1495 28.75 32.8315 28.75 32.5V28.75" stroke="#0068B3" stroke-width="2" stroke-linecap="round" stroke-linejoin="round"/>
<path d="M11.25 28.75V32.5C11.25 32.8315 11.1183 33.1495 10.8839 33.3839C10.6495 33.6183 10.3315 33.75 10 33.75H6.25C5.91848 33.75 5.60054 33.6183 5.36612 33.3839C5.1317 33.1495 5 32.8315 5 32.5V28.75" stroke="#0068B3" stroke-width="2" stroke-linecap="round" stroke-linejoin="round"/>
<path d="M10 23.75H12.5" stroke="#0068B3" stroke-width="2" stroke-linecap="round" stroke-linejoin="round"/>
<path d="M27.5 23.75H30" stroke="#0068B3" stroke-width="2" stroke-linecap="round" stroke-linejoin="round"/>
<path d="M35 18.75L30.3281 8.25C30.2312 8.02786 30.0717 7.8387 29.8692 7.70555C29.6667 7.57239 29.4299 7.50097 29.1875 7.5H10.8125C10.5701 7.50097 10.3333 7.57239 10.1308 7.70555C9.92825 7.8387 9.76882 8.02786 9.67188 8.25L5 18.75V28.75H35V18.75Z" stroke="#0068B3" stroke-width="2" stroke-linecap="round" stroke-linejoin="round"/>
</svg>
