<svg width="43" height="40" viewBox="0 0 43 40" fill="none" xmlns="http://www.w3.org/2000/svg">
<path d="M18.1667 5H29M18.1667 10H29M18.1667 15H29M14 5H14.0083M14 10H14.0083M14 15H14.0083" stroke="#344054" stroke-width="1.5" stroke-linecap="round" stroke-linejoin="round"/>
<path d="M1.05682 26.2727H2.31818L5.28409 33.517H5.38636L8.35227 26.2727H9.61364V35H8.625V28.3693H8.53977L5.8125 35H4.85795L2.13068 28.3693H2.04545V35H1.05682V26.2727ZM12.244 37.4545C12.0735 37.4545 11.9215 37.4403 11.788 37.4119C11.6545 37.3864 11.5621 37.3608 11.511 37.3352L11.7667 36.4489C12.011 36.5114 12.2269 36.5341 12.4144 36.517C12.6019 36.5 12.7681 36.4162 12.913 36.2656C13.0607 36.1179 13.1957 35.8778 13.3178 35.5455L13.5053 35.0341L11.0849 28.4545H12.1758L13.9826 33.6705H14.0508L15.8576 28.4545H16.9485L14.1701 35.9545C14.0451 36.2926 13.8903 36.5724 13.7056 36.794C13.521 37.0185 13.3065 37.1847 13.0621 37.2926C12.8207 37.4006 12.5479 37.4545 12.244 37.4545ZM22.1452 35H21.0373L24.2418 26.2727H25.3327L28.5373 35H27.4293L24.8214 27.6534H24.7532L22.1452 35ZM22.5543 31.5909H27.0202V32.5284H22.5543V31.5909ZM32.2319 35.1364C31.6864 35.1364 31.2049 34.9986 30.7873 34.723C30.3697 34.4446 30.043 34.0526 29.8072 33.5469C29.5714 33.0384 29.4535 32.4375 29.4535 31.7443C29.4535 31.0568 29.5714 30.4602 29.8072 29.9545C30.043 29.4489 30.3711 29.0582 30.7915 28.7827C31.212 28.5071 31.6978 28.3693 32.2489 28.3693C32.6751 28.3693 33.0117 28.4403 33.2589 28.5824C33.5089 28.7216 33.6992 28.8807 33.8299 29.0597C33.9634 29.2358 34.0671 29.3807 34.141 29.4943H34.2262V26.2727H35.2319V35H34.2603V33.9943H34.141C34.0671 34.1136 33.962 34.2642 33.8256 34.446C33.6893 34.625 33.4947 34.7855 33.2418 34.9276C32.989 35.0668 32.6523 35.1364 32.2319 35.1364ZM32.3683 34.233C32.7717 34.233 33.1126 34.1278 33.391 33.9176C33.6694 33.7045 33.881 33.4105 34.0259 33.0355C34.1708 32.6577 34.2433 32.2216 34.2433 31.7273C34.2433 31.2386 34.1722 30.8111 34.0302 30.4446C33.8881 30.0753 33.6779 29.7884 33.3995 29.5838C33.1211 29.3764 32.7773 29.2727 32.3683 29.2727C31.9421 29.2727 31.587 29.3821 31.3029 29.6009C31.0217 29.8168 30.81 30.1108 30.668 30.483C30.5288 30.8523 30.4592 31.267 30.4592 31.7273C30.4592 32.1932 30.5302 32.6165 30.6722 32.9972C30.8171 33.375 31.0302 33.6761 31.3114 33.9006C31.5955 34.1222 31.9478 34.233 32.3683 34.233ZM41.8498 29.9205L40.9464 30.1761C40.8896 30.0256 40.8058 29.8793 40.695 29.7372C40.587 29.5923 40.4393 29.473 40.2518 29.3793C40.0643 29.2855 39.8242 29.2386 39.5316 29.2386C39.131 29.2386 38.7972 29.331 38.5302 29.5156C38.266 29.6974 38.1339 29.929 38.1339 30.2102C38.1339 30.4602 38.2248 30.6577 38.4066 30.8026C38.5884 30.9474 38.8725 31.0682 39.2589 31.1648L40.2305 31.4034C40.8157 31.5455 41.2518 31.7628 41.5387 32.0554C41.8256 32.3452 41.9691 32.7187 41.9691 33.1761C41.9691 33.5511 41.8612 33.8864 41.6452 34.1818C41.4322 34.4773 41.1339 34.7102 40.7504 34.8807C40.3668 35.0511 39.9208 35.1364 39.4123 35.1364C38.7447 35.1364 38.1921 34.9915 37.7546 34.7017C37.3171 34.4119 37.0401 33.9886 36.9237 33.4318L37.8782 33.1932C37.9691 33.5455 38.141 33.8097 38.3938 33.9858C38.6495 34.1619 38.9833 34.25 39.3952 34.25C39.864 34.25 40.2362 34.1506 40.5117 33.9517C40.7901 33.75 40.9293 33.5085 40.9293 33.2273C40.9293 33 40.8498 32.8097 40.6907 32.6562C40.5316 32.5 40.2873 32.3835 39.9577 32.3068L38.8668 32.0511C38.2674 31.9091 37.8271 31.6889 37.5458 31.3906C37.2674 31.0895 37.1282 30.7131 37.1282 30.2614C37.1282 29.892 37.2319 29.5653 37.4393 29.2812C37.6495 28.9972 37.935 28.7741 38.2958 28.6122C38.6594 28.4503 39.0714 28.3693 39.5316 28.3693C40.1793 28.3693 40.6879 28.5114 41.0572 28.7955C41.4293 29.0795 41.6935 29.4545 41.8498 29.9205Z" fill="#344054"/>
</svg>
