<svg width="59" height="24" viewBox="0 0 59 24" fill="none" xmlns="http://www.w3.org/2000/svg">
<path d="M10 16L6 12L10 8" stroke="#0068B3" stroke-width="1.5" stroke-linecap="round" stroke-linejoin="round"/>
<path d="M21.1477 18V6.36364H25.6023C26.4432 6.36364 27.142 6.49621 27.6989 6.76136C28.2595 7.02273 28.678 7.38068 28.9545 7.83523C29.2348 8.28977 29.375 8.80492 29.375 9.38068C29.375 9.85417 29.2841 10.2595 29.1023 10.5966C28.9205 10.9299 28.6761 11.2008 28.3693 11.4091C28.0625 11.6174 27.7197 11.767 27.3409 11.858V11.9716C27.7538 11.9943 28.1496 12.1212 28.5284 12.3523C28.911 12.5795 29.2235 12.9015 29.4659 13.3182C29.7083 13.7348 29.8295 14.2386 29.8295 14.8295C29.8295 15.4318 29.6837 15.9735 29.392 16.4545C29.1004 16.9318 28.661 17.3087 28.0739 17.5852C27.4867 17.8617 26.7481 18 25.858 18H21.1477ZM23.2557 16.2386H25.5227C26.2879 16.2386 26.839 16.0928 27.1761 15.8011C27.517 15.5057 27.6875 15.1269 27.6875 14.6648C27.6875 14.3201 27.6023 14.0095 27.4318 13.733C27.2614 13.4527 27.0189 13.233 26.7045 13.0739C26.3902 12.911 26.0152 12.8295 25.5795 12.8295H23.2557V16.2386ZM23.2557 11.3125H25.3409C25.7045 11.3125 26.0322 11.2462 26.3239 11.1136C26.6155 10.9773 26.8447 10.786 27.0114 10.5398C27.1818 10.2898 27.267 9.99432 27.267 9.65341C27.267 9.20265 27.108 8.83144 26.7898 8.53977C26.4754 8.24811 26.0076 8.10227 25.3864 8.10227H23.2557V11.3125ZM34.0838 18.1761C33.5308 18.1761 33.0327 18.0777 32.5895 17.8807C32.1501 17.6799 31.8016 17.3845 31.544 16.9943C31.2902 16.6042 31.1634 16.1231 31.1634 15.5511C31.1634 15.0587 31.2543 14.6515 31.4361 14.3295C31.6179 14.0076 31.866 13.75 32.1804 13.5568C32.4948 13.3636 32.849 13.2178 33.2429 13.1193C33.6406 13.017 34.0516 12.9432 34.4759 12.8977C34.9872 12.8447 35.402 12.7973 35.7202 12.7557C36.0384 12.7102 36.2694 12.642 36.4134 12.5511C36.5611 12.4564 36.6349 12.3106 36.6349 12.1136V12.0795C36.6349 11.6515 36.508 11.3201 36.2543 11.0852C36.0005 10.8504 35.6349 10.733 35.1577 10.733C34.6539 10.733 34.2543 10.8428 33.9588 11.0625C33.6671 11.2822 33.4702 11.5417 33.3679 11.8409L31.4474 11.5682C31.599 11.0379 31.849 10.5947 32.1974 10.2386C32.5459 9.87879 32.9721 9.60985 33.4759 9.43182C33.9796 9.25 34.5365 9.15909 35.1463 9.15909C35.5668 9.15909 35.9853 9.20833 36.402 9.30682C36.8187 9.4053 37.1993 9.56818 37.544 9.79545C37.8887 10.0189 38.1652 10.3239 38.3736 10.7102C38.5857 11.0966 38.6918 11.5795 38.6918 12.1591V18H36.7145V16.8011H36.6463C36.5213 17.0436 36.3452 17.2708 36.1179 17.483C35.8944 17.6913 35.6122 17.8598 35.2713 17.9886C34.9342 18.1136 34.5384 18.1761 34.0838 18.1761ZM34.6179 16.6648C35.0308 16.6648 35.3887 16.5833 35.6918 16.4205C35.9948 16.2538 36.2277 16.0341 36.3906 15.7614C36.5573 15.4886 36.6406 15.1913 36.6406 14.8693V13.8409C36.5762 13.8939 36.4664 13.9432 36.3111 13.9886C36.1596 14.0341 35.9891 14.0739 35.7997 14.108C35.6103 14.142 35.4228 14.1723 35.2372 14.1989C35.0516 14.2254 34.8906 14.2481 34.7543 14.267C34.4474 14.3087 34.1728 14.3769 33.9304 14.4716C33.688 14.5663 33.4967 14.6989 33.3565 14.8693C33.2164 15.036 33.1463 15.2519 33.1463 15.517C33.1463 15.8958 33.2846 16.1818 33.5611 16.375C33.8376 16.5682 34.1899 16.6648 34.6179 16.6648ZM44.5668 18.1705C43.6955 18.1705 42.9474 17.9792 42.3224 17.5966C41.7012 17.214 41.2221 16.6856 40.8849 16.0114C40.5516 15.3333 40.3849 14.553 40.3849 13.6705C40.3849 12.7841 40.5554 12.0019 40.8963 11.3239C41.2372 10.642 41.7183 10.1117 42.3395 9.73295C42.9645 9.35038 43.7031 9.15909 44.5554 9.15909C45.2637 9.15909 45.8906 9.28977 46.4361 9.55114C46.9853 9.80871 47.4228 10.1742 47.7486 10.6477C48.0743 11.1174 48.2599 11.6667 48.3054 12.2955H46.3395C46.2599 11.875 46.0705 11.5246 45.7713 11.2443C45.4759 10.9602 45.08 10.8182 44.5838 10.8182C44.1634 10.8182 43.794 10.9318 43.4759 11.1591C43.1577 11.3826 42.9096 11.7045 42.7315 12.125C42.5573 12.5455 42.4702 13.0492 42.4702 13.6364C42.4702 14.2311 42.5573 14.7424 42.7315 15.1705C42.9058 15.5947 43.1501 15.9223 43.4645 16.1534C43.7827 16.3807 44.1558 16.4943 44.5838 16.4943C44.8868 16.4943 45.1577 16.4375 45.3963 16.3239C45.6387 16.2064 45.8414 16.0379 46.0043 15.8182C46.1671 15.5985 46.2789 15.3314 46.3395 15.017H48.3054C48.2562 15.6345 48.0743 16.1818 47.7599 16.6591C47.4455 17.1326 47.0175 17.5038 46.4759 17.7727C45.9342 18.0379 45.2978 18.1705 44.5668 18.1705ZM51.8693 15.2614L51.8636 12.7784H52.1932L55.3295 9.27273H57.733L53.875 13.5682H53.4489L51.8693 15.2614ZM49.9943 18V6.36364H52.0511V18H49.9943ZM55.4716 18L52.6307 14.0284L54.017 12.5795L57.9318 18H55.4716Z" fill="#0068B3"/>
</svg>
