<svg width="131" height="24" viewBox="0 0 131 24" fill="none" xmlns="http://www.w3.org/2000/svg">
<path d="M2.26136 18H0.397727L4.58523 6.36364H6.61364L10.8011 18H8.9375L5.64773 8.47727H5.55682L2.26136 18ZM2.57386 13.4432H8.61932V14.9205H2.57386V13.4432ZM15.4716 18.1705C14.767 18.1705 14.1383 17.9905 13.5852 17.6307C13.036 17.267 12.6042 16.75 12.2898 16.0795C11.9792 15.4053 11.8239 14.5966 11.8239 13.6534C11.8239 12.7102 11.9811 11.9034 12.2955 11.233C12.6136 10.5625 13.0492 10.0492 13.6023 9.69318C14.1553 9.33712 14.7822 9.15909 15.483 9.15909C16.0246 9.15909 16.4602 9.25 16.7898 9.43182C17.1231 9.60985 17.3807 9.81818 17.5625 10.0568C17.7481 10.2955 17.892 10.5057 17.9943 10.6875H18.0966V6.36364H19.7955V18H18.1364V16.642H17.9943C17.892 16.8277 17.7443 17.0398 17.5511 17.2784C17.3617 17.517 17.1004 17.7254 16.767 17.9034C16.4337 18.0814 16.0019 18.1705 15.4716 18.1705ZM15.8466 16.7216C16.3352 16.7216 16.7481 16.5928 17.0852 16.3352C17.4261 16.0739 17.6837 15.7121 17.858 15.25C18.036 14.7879 18.125 14.25 18.125 13.6364C18.125 13.0303 18.0379 12.5 17.8636 12.0455C17.6894 11.5909 17.4337 11.2367 17.0966 10.983C16.7595 10.7292 16.3428 10.6023 15.8466 10.6023C15.3352 10.6023 14.9091 10.7348 14.5682 11C14.2273 11.2652 13.9697 11.6269 13.7955 12.0852C13.625 12.5436 13.5398 13.0606 13.5398 13.6364C13.5398 14.2197 13.6269 14.7443 13.8011 15.2102C13.9754 15.6761 14.233 16.0455 14.5739 16.3182C14.9186 16.5871 15.3428 16.7216 15.8466 16.7216ZM25.4872 18.1705C24.7827 18.1705 24.1539 17.9905 23.6009 17.6307C23.0516 17.267 22.6198 16.75 22.3054 16.0795C21.9948 15.4053 21.8395 14.5966 21.8395 13.6534C21.8395 12.7102 21.9967 11.9034 22.3111 11.233C22.6293 10.5625 23.0649 10.0492 23.6179 9.69318C24.1709 9.33712 24.7978 9.15909 25.4986 9.15909C26.0402 9.15909 26.4759 9.25 26.8054 9.43182C27.1387 9.60985 27.3963 9.81818 27.5781 10.0568C27.7637 10.2955 27.9077 10.5057 28.0099 10.6875H28.1122V6.36364H29.8111V18H28.152V16.642H28.0099C27.9077 16.8277 27.7599 17.0398 27.5668 17.2784C27.3774 17.517 27.116 17.7254 26.7827 17.9034C26.4493 18.0814 26.0175 18.1705 25.4872 18.1705ZM25.8622 16.7216C26.3509 16.7216 26.7637 16.5928 27.1009 16.3352C27.4418 16.0739 27.6993 15.7121 27.8736 15.25C28.0516 14.7879 28.1406 14.25 28.1406 13.6364C28.1406 13.0303 28.0535 12.5 27.8793 12.0455C27.705 11.5909 27.4493 11.2367 27.1122 10.983C26.7751 10.7292 26.3584 10.6023 25.8622 10.6023C25.3509 10.6023 24.9247 10.7348 24.5838 11C24.2429 11.2652 23.9853 11.6269 23.8111 12.0852C23.6406 12.5436 23.5554 13.0606 23.5554 13.6364C23.5554 14.2197 23.6425 14.7443 23.8168 15.2102C23.991 15.6761 24.2486 16.0455 24.5895 16.3182C24.9342 16.5871 25.3584 16.7216 25.8622 16.7216ZM32.2358 18V9.27273H33.9347V18H32.2358ZM33.0938 7.92614C32.7983 7.92614 32.5445 7.82765 32.3324 7.63068C32.1241 7.42992 32.0199 7.19129 32.0199 6.91477C32.0199 6.63447 32.1241 6.39583 32.3324 6.19886C32.5445 5.99811 32.7983 5.89773 33.0938 5.89773C33.3892 5.89773 33.6411 5.99811 33.8494 6.19886C34.0616 6.39583 34.1676 6.63447 34.1676 6.91477C34.1676 7.19129 34.0616 7.42992 33.8494 7.63068C33.6411 7.82765 33.3892 7.92614 33.0938 7.92614ZM40.294 9.27273V10.6364H35.527V9.27273H40.294ZM36.8054 7.18182H38.5043V15.4375C38.5043 15.767 38.5535 16.0152 38.652 16.1818C38.7505 16.3447 38.8774 16.4564 39.0327 16.517C39.1918 16.5739 39.3641 16.6023 39.5497 16.6023C39.6861 16.6023 39.8054 16.5928 39.9077 16.5739C40.0099 16.5549 40.0895 16.5398 40.1463 16.5284L40.4531 17.9318C40.3546 17.9697 40.2145 18.0076 40.0327 18.0455C39.8509 18.0871 39.6236 18.1098 39.3509 18.1136C38.9039 18.1212 38.4872 18.0417 38.1009 17.875C37.7145 17.7083 37.402 17.4508 37.1634 17.1023C36.9247 16.7538 36.8054 16.3163 36.8054 15.7898V7.18182ZM42.1733 18V9.27273H43.8722V18H42.1733ZM43.0312 7.92614C42.7358 7.92614 42.482 7.82765 42.2699 7.63068C42.0616 7.42992 41.9574 7.19129 41.9574 6.91477C41.9574 6.63447 42.0616 6.39583 42.2699 6.19886C42.482 5.99811 42.7358 5.89773 43.0312 5.89773C43.3267 5.89773 43.5786 5.99811 43.7869 6.19886C43.9991 6.39583 44.1051 6.63447 44.1051 6.91477C44.1051 7.19129 43.9991 7.42992 43.7869 7.63068C43.5786 7.82765 43.3267 7.92614 43.0312 7.92614ZM49.8338 18.1761C49.0156 18.1761 48.3016 17.9886 47.6918 17.6136C47.0819 17.2386 46.6084 16.714 46.2713 16.0398C45.9342 15.3655 45.7656 14.5777 45.7656 13.6761C45.7656 12.7708 45.9342 11.9792 46.2713 11.3011C46.6084 10.6231 47.0819 10.0966 47.6918 9.72159C48.3016 9.34659 49.0156 9.15909 49.8338 9.15909C50.652 9.15909 51.366 9.34659 51.9759 9.72159C52.5857 10.0966 53.0592 10.6231 53.3963 11.3011C53.7334 11.9792 53.902 12.7708 53.902 13.6761C53.902 14.5777 53.7334 15.3655 53.3963 16.0398C53.0592 16.714 52.5857 17.2386 51.9759 17.6136C51.366 17.9886 50.652 18.1761 49.8338 18.1761ZM49.8395 16.75C50.3698 16.75 50.8092 16.6098 51.1577 16.3295C51.5062 16.0492 51.7637 15.6761 51.9304 15.2102C52.1009 14.7443 52.1861 14.2311 52.1861 13.6705C52.1861 13.1136 52.1009 12.6023 51.9304 12.1364C51.7637 11.6667 51.5062 11.2898 51.1577 11.0057C50.8092 10.7216 50.3698 10.5795 49.8395 10.5795C49.3054 10.5795 48.8622 10.7216 48.5099 11.0057C48.1615 11.2898 47.902 11.6667 47.7315 12.1364C47.5649 12.6023 47.4815 13.1136 47.4815 13.6705C47.4815 14.2311 47.5649 14.7443 47.7315 15.2102C47.902 15.6761 48.1615 16.0492 48.5099 16.3295C48.8622 16.6098 49.3054 16.75 49.8395 16.75ZM57.4972 12.8182V18H55.7983V9.27273H57.429V10.6932H57.5369C57.7377 10.2311 58.0521 9.85985 58.4801 9.57955C58.9119 9.29924 59.4555 9.15909 60.1108 9.15909C60.7055 9.15909 61.2263 9.28409 61.6733 9.53409C62.1203 9.7803 62.4669 10.1477 62.7131 10.6364C62.9593 11.125 63.0824 11.7292 63.0824 12.4489V18H61.3835V12.6534C61.3835 12.0208 61.2188 11.5265 60.8892 11.1705C60.5597 10.8106 60.107 10.6307 59.5312 10.6307C59.1373 10.6307 58.7869 10.7159 58.4801 10.8864C58.1771 11.0568 57.9366 11.3068 57.7585 11.6364C57.5843 11.9621 57.4972 12.3561 57.4972 12.8182ZM67.9006 18.1932C67.3475 18.1932 66.8475 18.0909 66.4006 17.8864C65.9536 17.678 65.5994 17.3769 65.3381 16.983C65.0805 16.589 64.9517 16.1061 64.9517 15.5341C64.9517 15.0417 65.0464 14.6364 65.2358 14.3182C65.4252 14 65.6809 13.7481 66.0028 13.5625C66.3248 13.3769 66.6847 13.2367 67.0824 13.142C67.4801 13.0473 67.8854 12.9754 68.2983 12.9261C68.821 12.8655 69.2453 12.8163 69.571 12.7784C69.8968 12.7367 70.1335 12.6705 70.2812 12.5795C70.429 12.4886 70.5028 12.3409 70.5028 12.1364V12.0966C70.5028 11.6004 70.3627 11.2159 70.0824 10.9432C69.8059 10.6705 69.393 10.5341 68.8438 10.5341C68.2718 10.5341 67.821 10.661 67.4915 10.9148C67.1657 11.1648 66.9403 11.4432 66.8153 11.75L65.2188 11.3864C65.4081 10.8561 65.6847 10.428 66.0483 10.1023C66.4157 9.77273 66.8381 9.53409 67.3153 9.38636C67.7926 9.23485 68.2945 9.15909 68.821 9.15909C69.1695 9.15909 69.5388 9.20076 69.929 9.28409C70.3229 9.36364 70.6903 9.51136 71.0312 9.72727C71.3759 9.94318 71.6581 10.2519 71.8778 10.6534C72.0975 11.0511 72.2074 11.5682 72.2074 12.2045V18H70.5483V16.8068H70.4801C70.3703 17.0265 70.2055 17.2424 69.9858 17.4545C69.7661 17.6667 69.4839 17.8428 69.1392 17.983C68.7945 18.1231 68.3816 18.1932 67.9006 18.1932ZM68.2699 16.8295C68.7396 16.8295 69.1411 16.7367 69.4744 16.5511C69.8116 16.3655 70.0672 16.1231 70.2415 15.8239C70.4195 15.5208 70.5085 15.197 70.5085 14.8523V13.7273C70.4479 13.7879 70.3305 13.8447 70.1562 13.8977C69.9858 13.947 69.7907 13.9905 69.571 14.0284C69.3513 14.0625 69.1373 14.0947 68.929 14.125C68.7206 14.1515 68.5464 14.1742 68.4062 14.1932C68.0767 14.2348 67.7756 14.3049 67.5028 14.4034C67.2339 14.5019 67.018 14.6439 66.8551 14.8295C66.696 15.0114 66.6165 15.2538 66.6165 15.5568C66.6165 15.9773 66.7718 16.2955 67.0824 16.5114C67.393 16.7235 67.7888 16.8295 68.2699 16.8295ZM76.169 6.36364V18H74.4702V6.36364H76.169ZM84.581 6.36364V18H82.8253V6.36364H84.581ZM88.7003 12.8182V18H87.0014V9.27273H88.6321V10.6932H88.7401C88.9408 10.2311 89.2552 9.85985 89.6832 9.57955C90.1151 9.29924 90.6586 9.15909 91.3139 9.15909C91.9086 9.15909 92.4295 9.28409 92.8764 9.53409C93.3234 9.7803 93.67 10.1477 93.9162 10.6364C94.1624 11.125 94.2855 11.7292 94.2855 12.4489V18H92.5866V12.6534C92.5866 12.0208 92.4219 11.5265 92.0923 11.1705C91.7628 10.8106 91.3101 10.6307 90.7344 10.6307C90.3404 10.6307 89.9901 10.7159 89.6832 10.8864C89.3802 11.0568 89.1397 11.3068 88.9616 11.6364C88.7874 11.9621 88.7003 12.3561 88.7003 12.8182ZM100.717 9.27273V10.6364H95.7855V9.27273H100.717ZM97.1378 18V8.26136C97.1378 7.71591 97.2571 7.26326 97.4957 6.90341C97.7344 6.53977 98.0507 6.26894 98.4446 6.09091C98.8385 5.90909 99.2666 5.81818 99.7287 5.81818C100.07 5.81818 100.361 5.84659 100.604 5.90341C100.846 5.95644 101.026 6.00568 101.143 6.05114L100.746 7.42614C100.666 7.40341 100.564 7.37689 100.439 7.34659C100.314 7.3125 100.162 7.29545 99.9844 7.29545C99.5715 7.29545 99.276 7.39773 99.098 7.60227C98.9238 7.80682 98.8366 8.10227 98.8366 8.48864V18H97.1378ZM105.803 18.1761C104.984 18.1761 104.27 17.9886 103.661 17.6136C103.051 17.2386 102.577 16.714 102.24 16.0398C101.903 15.3655 101.734 14.5777 101.734 13.6761C101.734 12.7708 101.903 11.9792 102.24 11.3011C102.577 10.6231 103.051 10.0966 103.661 9.72159C104.27 9.34659 104.984 9.15909 105.803 9.15909C106.621 9.15909 107.335 9.34659 107.945 9.72159C108.554 10.0966 109.028 10.6231 109.365 11.3011C109.702 11.9792 109.871 12.7708 109.871 13.6761C109.871 14.5777 109.702 15.3655 109.365 16.0398C109.028 16.714 108.554 17.2386 107.945 17.6136C107.335 17.9886 106.621 18.1761 105.803 18.1761ZM105.808 16.75C106.339 16.75 106.778 16.6098 107.126 16.3295C107.475 16.0492 107.732 15.6761 107.899 15.2102C108.07 14.7443 108.155 14.2311 108.155 13.6705C108.155 13.1136 108.07 12.6023 107.899 12.1364C107.732 11.6667 107.475 11.2898 107.126 11.0057C106.778 10.7216 106.339 10.5795 105.808 10.5795C105.274 10.5795 104.831 10.7216 104.479 11.0057C104.13 11.2898 103.871 11.6667 103.7 12.1364C103.534 12.6023 103.45 13.1136 103.45 13.6705C103.45 14.2311 103.534 14.7443 103.7 15.2102C103.871 15.6761 104.13 16.0492 104.479 16.3295C104.831 16.6098 105.274 16.75 105.808 16.75Z" fill="#0068B3"/>
<path d="M123 18.6667C126.667 18.6667 129.667 15.6667 129.667 12C129.667 8.33334 126.667 5.33334 123 5.33334C119.333 5.33334 116.333 8.33334 116.333 12C116.333 15.6667 119.333 18.6667 123 18.6667Z" stroke="#0068B3" stroke-width="1.5" stroke-linecap="round" stroke-linejoin="round"/>
<path d="M120.333 12H125.667" stroke="#0068B3" stroke-width="1.5" stroke-linecap="round" stroke-linejoin="round"/>
<path d="M123 14.6667V9.33334" stroke="#0068B3" stroke-width="1.5" stroke-linecap="round" stroke-linejoin="round"/>
</svg>
