<svg width="143" height="28" viewBox="0 0 143 28" fill="none" xmlns="http://www.w3.org/2000/svg">
<path d="M0 27.9843L2.62113 12.7197L12.0964 10.5068L4.74516 22.309L18.589 16.9197C21.7072 15.7004 25.1117 17.9434 25.1719 21.2853C25.1719 21.3305 25.1719 21.3757 25.1719 21.4208C25.1719 24.9434 22.3851 27.8187 18.9053 27.9692H0V27.9843Z" fill="url(#paint0_linear_3584_4599)"/>
<path d="M23.6654 12.2378L12.9098 16.2722L20.0501 5.0571L3.11816 9.87431L4.80533 -0.000976562H21.436C25.3375 -0.000976562 28.3202 3.50656 27.6725 7.36033C27.3109 9.58829 25.7744 11.4399 23.6654 12.2378Z" fill="url(#paint1_linear_3584_4599)"/>
<path d="M48.2797 9.40868C48.2797 9.95061 48.2044 10.4474 48.0387 10.8839C47.873 11.3205 47.6621 11.6969 47.3759 12.0431C47.0897 12.3893 46.7582 12.6904 46.3816 12.9463C46.005 13.2173 45.5983 13.4581 45.1464 13.684C45.3573 13.7592 45.5983 13.8797 45.8845 14.0302C46.1708 14.1958 46.4419 14.4065 46.698 14.6926C46.9541 14.9786 47.18 15.3399 47.3608 15.7764C47.5416 16.213 47.632 16.7549 47.632 17.4022C47.632 18.2453 47.4512 19.028 47.0897 19.7506C46.7281 20.4732 46.2009 21.0754 45.4929 21.6022C44.7849 22.1141 43.9262 22.5205 42.9019 22.8216C41.8775 23.1076 40.6875 23.2582 39.3618 23.2582H30.9712L34.7824 5.3291H42.2089C42.9471 5.3291 43.6701 5.37426 44.3932 5.47964C45.1163 5.58502 45.764 5.78072 46.3365 6.08179C46.9089 6.38287 47.3759 6.80437 47.7374 7.33126C48.0989 7.87319 48.2797 8.56567 48.2797 9.40868ZM38.5634 21.4668C39.1208 21.4668 39.6029 21.3012 39.9795 20.985C40.3561 20.6689 40.6724 20.2775 40.9134 19.7958C41.1544 19.3291 41.3352 18.8323 41.4407 18.3205C41.5461 17.8087 41.5913 17.342 41.5913 16.9506C41.5913 16.2883 41.4557 15.7764 41.1846 15.385C40.9134 14.9936 40.4766 14.813 39.874 14.813H38.8346L37.4487 21.4668H38.5634ZM40.5971 12.8259C41.0038 12.8259 41.3653 12.7055 41.6516 12.4646C41.9378 12.2237 42.1788 11.9076 42.3746 11.5463C42.5554 11.185 42.706 10.7786 42.7964 10.3571C42.8868 9.93556 42.932 9.55922 42.932 9.21298C42.932 8.67104 42.8115 8.20438 42.5554 7.81298C42.2993 7.42158 41.9076 7.24093 41.3503 7.24093H40.5067L39.2865 12.8259H40.5971Z" fill="#101828"/>
<path d="M59.0654 11.1104H64.8198L62.2288 23.2437H57.6493L57.1372 21.4372H56.9715C56.4744 22.0243 55.8115 22.5061 54.983 22.8975C54.1394 23.2889 53.2959 23.4695 52.4523 23.4695C51.3225 23.4695 50.4337 23.1835 49.801 22.6114C49.1683 22.0394 48.8369 21.2867 48.8369 20.3684C48.8369 19.9018 48.9122 19.3147 49.0779 18.6071C49.2436 17.8996 49.3792 17.2372 49.5148 16.62L50.7048 11.1104H56.4442L55.0282 17.719C54.983 17.8695 54.9529 18.0501 54.9077 18.2609C54.8625 18.4717 54.8324 18.6674 54.7872 18.8631C54.742 19.0588 54.7119 19.2545 54.6817 19.4351C54.6516 19.6157 54.6365 19.7663 54.6365 19.8717C54.6365 20.1577 54.6968 20.3985 54.8173 20.5942C54.9378 20.7899 55.1638 20.8953 55.4801 20.8953C55.8115 20.8953 56.1429 20.7749 56.4442 20.5641C56.7455 20.3383 56.9865 20.1276 57.1522 19.9168L59.0654 11.1104Z" fill="#101828"/>
<path d="M72.1419 11.1104L72.9855 19.405L77.4444 11.1104H80.4422L73.6333 23.2437C72.9554 24.433 72.2624 25.3362 71.5695 25.9835C70.8766 26.6158 70.1083 27.0975 69.2948 27.3986C68.4814 27.6996 67.5775 27.8803 66.5833 27.9254C65.5891 27.9706 64.4744 28.0007 63.209 28.0007L63.6308 26.0588C64.2484 26.0588 64.8359 26.0437 65.3631 26.0287C65.9054 26.0136 66.3272 25.9534 66.6436 25.8631C67.0804 25.7426 67.3817 25.5469 67.5775 25.2609C67.7583 24.9749 67.8638 24.5383 67.8638 23.9813C67.8638 23.605 67.8336 23.1684 67.7583 22.6867C67.698 22.205 67.6227 21.6781 67.5474 21.1362L66.1615 11.1405H72.1419V11.1104Z" fill="#101828"/>
<path d="M87.2203 12.9171C87.6119 12.5408 88.0638 12.1945 88.5459 11.8784C88.9827 11.6225 89.4799 11.3666 90.0674 11.1408C90.6549 10.9149 91.3026 10.8096 92.0106 10.8096C92.9898 10.8096 93.8032 11.0655 94.4359 11.5623C95.0686 12.059 95.4 12.7365 95.4 13.6096C95.4 13.8504 95.3699 14.1515 95.3096 14.4977C95.2494 14.844 95.1891 15.2053 95.1138 15.5816C95.0385 15.958 94.9631 16.3343 94.8728 16.7257C94.7824 17.1171 94.7221 17.4483 94.6619 17.7494L93.4718 23.2591H87.7324L89.284 15.8978C89.3142 15.6569 89.3744 15.401 89.4196 15.1451C89.4648 14.8891 89.51 14.6633 89.51 14.4526C89.51 14.1666 89.4347 13.9408 89.2991 13.7601C89.1635 13.5795 88.9526 13.4891 88.6664 13.4891C88.335 13.4891 88.0036 13.6096 87.6872 13.8504C87.3709 14.0913 87.1299 14.302 86.9642 14.4676L85.0962 23.244H79.3418L81.9479 11.1106H86.5574L87.0696 12.9171H87.2203Z" fill="#101828"/>
<path d="M95.7011 21.0459L103.248 13.0071H97.5088L97.8703 11.1104H109.756L109.304 13.1426L101.968 21.362H108.204L107.873 23.2588H95.2793L95.7011 21.0459Z" fill="#101828"/>
<path d="M115.555 17.5676C115.48 17.9891 115.435 18.3805 115.404 18.7568C115.374 19.1332 115.359 19.4794 115.359 19.7805C115.359 19.9461 115.374 20.1418 115.389 20.3525C115.404 20.5633 115.45 20.759 115.51 20.9246C115.57 21.1052 115.676 21.2558 115.796 21.3762C115.917 21.4966 116.097 21.5568 116.323 21.5568C116.489 21.5568 116.685 21.4966 116.896 21.3912C117.107 21.2708 117.333 21.1203 117.544 20.9095C117.754 20.6988 117.965 20.4429 118.161 20.1418C118.357 19.8407 118.508 19.5095 118.628 19.1181H123.253L122.515 22.1439C122.138 22.3848 121.701 22.5955 121.219 22.7611C120.722 22.9267 120.21 23.0622 119.668 23.1676C119.125 23.273 118.568 23.3482 117.995 23.3934C117.438 23.4386 116.896 23.4687 116.384 23.4687C115.435 23.4687 114.561 23.3783 113.763 23.2127C112.949 23.0472 112.241 22.7461 111.638 22.3396C111.036 21.9332 110.554 21.3762 110.207 20.6837C109.861 19.9912 109.68 19.1482 109.68 18.1246C109.68 17.2063 109.831 16.3031 110.117 15.4149C110.403 14.5267 110.9 13.7439 111.578 13.0514C112.271 12.359 113.19 11.817 114.35 11.3955C115.51 10.9891 116.956 10.7783 118.688 10.7783C120.571 10.7783 121.987 11.0643 122.936 11.6514C123.886 12.2385 124.368 13.1418 124.368 14.3912C124.368 14.9031 124.292 15.445 124.142 16.0471C123.991 16.6342 123.765 17.1461 123.464 17.5525H115.555V17.5676ZM119.306 14.2106C119.306 13.6235 119.216 13.2321 119.02 13.0213C118.824 12.8106 118.598 12.7052 118.342 12.7052C118.041 12.7052 117.77 12.8106 117.513 13.0063C117.257 13.202 117.031 13.4729 116.821 13.7891C116.61 14.1203 116.429 14.4966 116.248 14.9181C116.082 15.3396 115.932 15.7912 115.826 16.2579H119.05C119.08 16.0321 119.125 15.7912 119.17 15.5504C119.201 15.3396 119.246 15.1138 119.276 14.873C119.291 14.6471 119.306 14.4213 119.306 14.2106Z" fill="#101828"/>
<path d="M130.317 23.2432H124.563L128.57 4.27539H134.355L130.317 23.2432Z" fill="#101828"/>
<path d="M138.588 23.2432H132.833L136.841 4.27539H142.625L138.588 23.2432Z" fill="#101828"/>
<defs>
<linearGradient id="paint0_linear_3584_4599" x1="0.898997" y1="12.4929" x2="25.0626" y2="20.5139" gradientUnits="userSpaceOnUse">
<stop stop-color="#B68214"/>
<stop offset="1" stop-color="#DFBA53"/>
</linearGradient>
<linearGradient id="paint1_linear_3584_4599" x1="3.99827" y1="1.84824" x2="27.4089" y2="10.019" gradientUnits="userSpaceOnUse">
<stop stop-color="#B68214"/>
<stop offset="1" stop-color="#DFBA53"/>
</linearGradient>
</defs>
</svg>
