<svg width="20" height="40" viewBox="0 0 20 40" fill="none" xmlns="http://www.w3.org/2000/svg">
<g clip-path="url(#clip0_2918_21012)">
<path d="M18.3332 10.0003C18.3332 14.6027 14.6022 18.3337 9.99984 18.3337M18.3332 10.0003C18.3332 5.39795 14.6022 1.66699 9.99984 1.66699M18.3332 10.0003H1.6665M9.99984 18.3337C5.39746 18.3337 1.6665 14.6027 1.6665 10.0003M9.99984 18.3337C12.0842 16.0517 13.2688 13.0903 13.3332 10.0003C13.2688 6.91035 12.0842 3.94895 9.99984 1.66699M9.99984 18.3337C7.91544 16.0517 6.73088 13.0903 6.6665 10.0003C6.73088 6.91035 7.91544 3.94895 9.99984 1.66699M1.6665 10.0003C1.6665 5.39795 5.39746 1.66699 9.99984 1.66699" stroke="#344054" stroke-width="1.5" stroke-linecap="round" stroke-linejoin="round"/>
</g>
<path d="M2.55682 35V26.2727H7.82386V27.2102H3.61364V30.1591H7.55114V31.0966H3.61364V34.0625H7.89205V35H2.55682ZM16.6491 26.2727V35H15.6264L10.8707 28.1477H10.7855V35H9.72869V26.2727H10.7514L15.5241 33.142H15.6094V26.2727H16.6491Z" fill="#344054"/>
<defs>
<clipPath id="clip0_2918_21012">
<rect width="20" height="20" fill="white"/>
</clipPath>
</defs>
</svg>
