<svg width="17" height="16" viewBox="0 0 17 16" fill="none" xmlns="http://www.w3.org/2000/svg">
<path d="M11.9666 14.6666C13.7339 14.6666 15.1666 13.2339 15.1666 11.4666C15.1666 9.69928 13.7339 8.2666 11.9666 8.2666C10.1993 8.2666 8.7666 9.69928 8.7666 11.4666C8.7666 13.2339 10.1993 14.6666 11.9666 14.6666Z" stroke="#0068B3" stroke-width="1.5" stroke-miterlimit="10" stroke-linecap="round" stroke-linejoin="round"/>
<path d="M13.1601 11.5068H10.7734" stroke="#0068B3" stroke-width="1.5" stroke-miterlimit="10" stroke-linecap="round" stroke-linejoin="round"/>
<path d="M11.9668 10.3398V12.7332" stroke="#0068B3" stroke-width="1.5" stroke-miterlimit="10" stroke-linecap="round" stroke-linejoin="round"/>
<path d="M15.1663 5.79309C15.1663 7.10642 14.8263 8.2664 14.293 9.27307C13.7063 8.65307 12.8797 8.26644 11.9663 8.26644C10.1997 8.26644 8.76636 9.69976 8.76636 11.4664C8.76636 12.2864 9.07968 13.0331 9.58634 13.5998C9.33968 13.7131 9.113 13.8064 8.913 13.8731C8.68634 13.9531 8.31301 13.9531 8.08634 13.8731C6.15301 13.2131 1.83301 10.4598 1.83301 5.79309C1.83301 3.73309 3.49301 2.06641 5.53967 2.06641C6.74634 2.06641 7.82634 2.6531 8.49967 3.5531C9.17301 2.6531 10.253 2.06641 11.4597 2.06641C13.5063 2.06641 15.1663 3.73309 15.1663 5.79309Z" stroke="#0068B3" stroke-width="1.5" stroke-linecap="round" stroke-linejoin="round"/>
</svg>
