<svg width="32" height="32" viewBox="0 0 32 32" fill="none" xmlns="http://www.w3.org/2000/svg">
<path d="M9.41477 20H8.30682L11.5114 11.2727H12.6023L15.8068 20H14.6989L12.0909 12.6534H12.0227L9.41477 20ZM9.82386 16.5909H14.2898V17.5284H9.82386V16.5909ZM19.5014 20.1364C18.956 20.1364 18.4744 19.9986 18.0568 19.723C17.6392 19.4446 17.3125 19.0526 17.0767 18.5469C16.8409 18.0384 16.723 17.4375 16.723 16.7443C16.723 16.0568 16.8409 15.4602 17.0767 14.9545C17.3125 14.4489 17.6406 14.0582 18.0611 13.7827C18.4815 13.5071 18.9673 13.3693 19.5185 13.3693C19.9446 13.3693 20.2813 13.4403 20.5284 13.5824C20.7784 13.7216 20.9688 13.8807 21.0994 14.0597C21.233 14.2358 21.3366 14.3807 21.4105 14.4943H21.4957V11.2727H22.5014V20H21.5298V18.9943H21.4105C21.3366 19.1136 21.2315 19.2642 21.0952 19.446C20.9588 19.625 20.7642 19.7855 20.5114 19.9276C20.2585 20.0668 19.9219 20.1364 19.5014 20.1364ZM19.6378 19.233C20.0412 19.233 20.3821 19.1278 20.6605 18.9176C20.9389 18.7045 21.1506 18.4105 21.2955 18.0355C21.4403 17.6577 21.5128 17.2216 21.5128 16.7273C21.5128 16.2386 21.4418 15.8111 21.2997 15.4446C21.1577 15.0753 20.9474 14.7884 20.669 14.5838C20.3906 14.3764 20.0469 14.2727 19.6378 14.2727C19.2116 14.2727 18.8565 14.3821 18.5724 14.6009C18.2912 14.8168 18.0795 15.1108 17.9375 15.483C17.7983 15.8523 17.7287 16.267 17.7287 16.7273C17.7287 17.1932 17.7997 17.6165 17.9418 17.9972C18.0866 18.375 18.2997 18.6761 18.581 18.9006C18.8651 19.1222 19.2173 19.233 19.6378 19.233Z" fill="#98A2B3"/>
<rect x="0.5" y="0.5" width="31" height="31" rx="15.5" stroke="#98A2B3"/>
</svg>
