<svg width="17" height="17" viewBox="0 0 17 17" fill="none" xmlns="http://www.w3.org/2000/svg">
<path d="M8.5 14C11.5376 14 14 11.5376 14 8.5C14 5.46243 11.5376 3 8.5 3C5.46243 3 3 5.46243 3 8.5C3 11.5376 5.46243 14 8.5 14Z" stroke="#0068B3" stroke-linecap="round" stroke-linejoin="round"/>
<path d="M8.5 1.75V4.25" stroke="#0068B3" stroke-linecap="round" stroke-linejoin="round"/>
<path d="M1.75 8.5H4.25" stroke="#0068B3" stroke-linecap="round" stroke-linejoin="round"/>
<path d="M8.5 15.25V12.75" stroke="#0068B3" stroke-linecap="round" stroke-linejoin="round"/>
<path d="M15.25 8.5H12.75" stroke="#0068B3" stroke-linecap="round" stroke-linejoin="round"/>
<path d="M8.5 10.5C9.60457 10.5 10.5 9.60457 10.5 8.5C10.5 7.39543 9.60457 6.5 8.5 6.5C7.39543 6.5 6.5 7.39543 6.5 8.5C6.5 9.60457 7.39543 10.5 8.5 10.5Z" stroke="#0068B3" stroke-linecap="round" stroke-linejoin="round"/>
</svg>
