<svg width="143" height="28" viewBox="0 0 143 28" fill="none" xmlns="http://www.w3.org/2000/svg">
<path d="M0 27.9843L2.62113 12.7197L12.0964 10.5068L4.74516 22.309L18.589 16.9197C21.7072 15.7004 25.1117 17.9434 25.1719 21.2853C25.1719 21.3305 25.1719 21.3757 25.1719 21.4208C25.1719 24.9434 22.3851 27.8187 18.9053 27.9692H0V27.9843Z" fill="#FFBA14"/>
<path d="M23.6654 12.2378L12.9098 16.2722L20.0501 5.0571L3.11816 9.87431L4.80533 -0.000976562H21.436C25.3375 -0.000976562 28.3202 3.50656 27.6725 7.36033C27.3109 9.58829 25.7744 11.4399 23.6654 12.2378Z" fill="#0068B3"/>
<path d="M48.2802 9.40868C48.2802 9.95061 48.2049 10.4474 48.0392 10.8839C47.8735 11.3205 47.6626 11.6969 47.3764 12.0431C47.0901 12.3893 46.7587 12.6904 46.3821 12.9463C46.0055 13.2173 45.5988 13.4581 45.1469 13.684C45.3578 13.7592 45.5988 13.8797 45.885 14.0302C46.1712 14.1958 46.4424 14.4065 46.6985 14.6926C46.9546 14.9786 47.1805 15.3399 47.3613 15.7764C47.5421 16.213 47.6324 16.7549 47.6324 17.4022C47.6324 18.2453 47.4517 19.028 47.0901 19.7506C46.7286 20.4732 46.2014 21.0754 45.4934 21.6022C44.7854 22.1141 43.9267 22.5205 42.9024 22.8216C41.878 23.1076 40.6879 23.2582 39.3623 23.2582H30.9717L34.7829 5.3291H42.2094C42.9475 5.3291 43.6706 5.37426 44.3937 5.47964C45.1168 5.58502 45.7645 5.78072 46.3369 6.08179C46.9094 6.38287 47.3764 6.80437 47.7379 7.33126C48.0994 7.87319 48.2802 8.56567 48.2802 9.40868ZM38.5639 21.4668C39.1213 21.4668 39.6033 21.3012 39.9799 20.985C40.3565 20.6689 40.6729 20.2775 40.9139 19.7958C41.1549 19.3291 41.3357 18.8323 41.4411 18.3205C41.5466 17.8087 41.5918 17.342 41.5918 16.9506C41.5918 16.2883 41.4562 15.7764 41.1851 15.385C40.9139 14.9936 40.4771 14.813 39.8745 14.813H38.8351L37.4492 21.4668H38.5639ZM40.5976 12.8259C41.0043 12.8259 41.3658 12.7055 41.652 12.4646C41.9383 12.2237 42.1793 11.9076 42.3751 11.5463C42.5559 11.185 42.7065 10.7786 42.7969 10.3571C42.8873 9.93556 42.9325 9.55922 42.9325 9.21298C42.9325 8.67104 42.812 8.20438 42.5559 7.81298C42.2998 7.42158 41.9081 7.24093 41.3508 7.24093H40.5072L39.287 12.8259H40.5976Z" fill="#101828"/>
<path d="M59.0654 11.1104H64.8198L62.2288 23.2437H57.6493L57.1372 21.4372H56.9715C56.4744 22.0243 55.8115 22.5061 54.983 22.8975C54.1394 23.2889 53.2959 23.4695 52.4523 23.4695C51.3225 23.4695 50.4337 23.1835 49.801 22.6114C49.1683 22.0394 48.8369 21.2867 48.8369 20.3684C48.8369 19.9018 48.9122 19.3147 49.0779 18.6071C49.2436 17.8996 49.3792 17.2372 49.5148 16.62L50.7048 11.1104H56.4442L55.0282 17.719C54.983 17.8695 54.9529 18.0501 54.9077 18.2609C54.8625 18.4717 54.8324 18.6674 54.7872 18.8631C54.742 19.0588 54.7119 19.2545 54.6817 19.4351C54.6516 19.6157 54.6365 19.7663 54.6365 19.8717C54.6365 20.1577 54.6968 20.3985 54.8173 20.5942C54.9378 20.7899 55.1638 20.8953 55.4801 20.8953C55.8115 20.8953 56.1429 20.7749 56.4442 20.5641C56.7455 20.3383 56.9865 20.1276 57.1522 19.9168L59.0654 11.1104Z" fill="#101828"/>
<path d="M72.1429 11.1104L72.9865 19.405L77.4454 11.1104H80.4432L73.6342 23.2437C72.9564 24.433 72.2634 25.3362 71.5705 25.9835C70.8775 26.6158 70.1093 27.0975 69.2958 27.3986C68.4824 27.6996 67.5785 27.8803 66.5843 27.9254C65.5901 27.9706 64.4753 28.0007 63.21 28.0007L63.6318 26.0588C64.2494 26.0588 64.8369 26.0437 65.3641 26.0287C65.9064 26.0136 66.3282 25.9534 66.6445 25.8631C67.0814 25.7426 67.3827 25.5469 67.5785 25.2609C67.7593 24.9749 67.8647 24.5383 67.8647 23.9813C67.8647 23.605 67.8346 23.1684 67.7593 22.6867C67.699 22.205 67.6237 21.6781 67.5484 21.1362L66.1625 11.1405H72.1429V11.1104Z" fill="#101828"/>
<path d="M87.2203 12.9171C87.6119 12.5408 88.0638 12.1945 88.5459 11.8784C88.9827 11.6225 89.4799 11.3666 90.0674 11.1408C90.6549 10.9149 91.3026 10.8096 92.0106 10.8096C92.9898 10.8096 93.8032 11.0655 94.4359 11.5623C95.0686 12.059 95.4 12.7365 95.4 13.6096C95.4 13.8504 95.3699 14.1515 95.3096 14.4977C95.2494 14.844 95.1891 15.2053 95.1138 15.5816C95.0385 15.958 94.9631 16.3343 94.8728 16.7257C94.7824 17.1171 94.7221 17.4483 94.6619 17.7494L93.4718 23.2591H87.7324L89.284 15.8978C89.3142 15.6569 89.3744 15.401 89.4196 15.1451C89.4648 14.8891 89.51 14.6633 89.51 14.4526C89.51 14.1666 89.4347 13.9408 89.2991 13.7601C89.1635 13.5795 88.9526 13.4891 88.6664 13.4891C88.335 13.4891 88.0036 13.6096 87.6872 13.8504C87.3709 14.0913 87.1299 14.302 86.9642 14.4676L85.0962 23.244H79.3418L81.9479 11.1106H86.5574L87.0696 12.9171H87.2203Z" fill="#101828"/>
<path d="M95.7021 21.0459L103.249 13.0071H97.5097L97.8713 11.1104H109.757L109.305 13.1426L101.969 21.362H108.205L107.874 23.2588H95.2803L95.7021 21.0459Z" fill="#101828"/>
<path d="M115.556 17.5676C115.48 17.9891 115.435 18.3805 115.405 18.7568C115.375 19.1332 115.36 19.4794 115.36 19.7805C115.36 19.9461 115.375 20.1418 115.39 20.3525C115.405 20.5633 115.45 20.759 115.51 20.9246C115.571 21.1052 115.676 21.2558 115.797 21.3762C115.917 21.4966 116.098 21.5568 116.324 21.5568C116.49 21.5568 116.685 21.4966 116.896 21.3912C117.107 21.2708 117.333 21.1203 117.544 20.9095C117.755 20.6988 117.966 20.4429 118.162 20.1418C118.358 19.8407 118.508 19.5095 118.629 19.1181H123.253L122.515 22.1439C122.139 22.3848 121.702 22.5955 121.22 22.7611C120.723 22.9267 120.21 23.0622 119.668 23.1676C119.126 23.273 118.568 23.3482 117.996 23.3934C117.439 23.4386 116.896 23.4687 116.384 23.4687C115.435 23.4687 114.561 23.3783 113.763 23.2127C112.95 23.0472 112.242 22.7461 111.639 22.3396C111.036 21.9332 110.554 21.3762 110.208 20.6837C109.861 19.9912 109.681 19.1482 109.681 18.1246C109.681 17.2063 109.831 16.3031 110.118 15.4149C110.404 14.5267 110.901 13.7439 111.579 13.0514C112.272 12.359 113.191 11.817 114.35 11.3955C115.51 10.9891 116.957 10.7783 118.689 10.7783C120.572 10.7783 121.988 11.0643 122.937 11.6514C123.886 12.2385 124.368 13.1418 124.368 14.3912C124.368 14.9031 124.293 15.445 124.142 16.0471C123.991 16.6342 123.765 17.1461 123.464 17.5525H115.556V17.5676ZM119.307 14.2106C119.307 13.6235 119.216 13.2321 119.02 13.0213C118.825 12.8106 118.599 12.7052 118.342 12.7052C118.041 12.7052 117.77 12.8106 117.514 13.0063C117.258 13.202 117.032 13.4729 116.821 13.7891C116.61 14.1203 116.429 14.4966 116.249 14.9181C116.083 15.3396 115.932 15.7912 115.827 16.2579H119.05C119.081 16.0321 119.126 15.7912 119.171 15.5504C119.201 15.3396 119.246 15.1138 119.276 14.873C119.291 14.6471 119.307 14.4213 119.307 14.2106Z" fill="#101828"/>
<path d="M130.318 23.2432H124.563L128.57 4.27539H134.355L130.318 23.2432Z" fill="#101828"/>
<path d="M138.588 23.2432H132.834L136.841 4.27539H142.626L138.588 23.2432Z" fill="#101828"/>
</svg>
