<svg width="40" height="40" viewBox="0 0 40 40" fill="none" xmlns="http://www.w3.org/2000/svg">
<path d="M6.66683 30H33.3335C35.1744 30 36.6668 28.5077 36.6668 26.6667C36.6668 24.8258 35.1744 23.3334 33.3335 23.3334H6.66683C4.82588 23.3334 3.3335 24.8258 3.3335 26.6667C3.3335 28.5077 4.82588 30 6.66683 30Z" stroke="#0068B3" stroke-width="2"/>
<path d="M7.49988 23.3333L7.37547 22.8357C5.56409 15.5901 4.65839 11.9673 6.44307 9.46365C6.55564 9.30572 6.67506 9.15277 6.80098 9.00525C8.79706 6.66663 12.5313 6.66663 19.9999 6.66663C27.4684 6.66663 31.2027 6.66663 33.1988 9.00525C33.3247 9.15277 33.4441 9.30572 33.5567 9.46365C35.3414 11.9673 34.4357 15.5901 32.6243 22.8357L32.4999 23.3333" stroke="#0068B3" stroke-width="2"/>
<path d="M33.3332 33.3333V30M6.6665 33.3333V30" stroke="#0068B3" stroke-width="2" stroke-linecap="round"/>
</svg>
