<svg width="36" height="36" viewBox="0 0 36 36" fill="none" xmlns="http://www.w3.org/2000/svg">
<rect x="2" y="2" width="32" height="32" rx="16" fill="#CCE1F0"/>
<path d="M19.3334 11.5136V14.2673C19.3334 14.6407 19.3334 14.8274 19.4061 14.97C19.47 15.0954 19.572 15.1974 19.6974 15.2613C19.84 15.334 20.0267 15.334 20.4001 15.334H23.1538M23.3334 16.6595V21.4673C23.3334 22.5874 23.3334 23.1475 23.1154 23.5753C22.9237 23.9516 22.6177 24.2576 22.2414 24.4493C21.8136 24.6673 21.2535 24.6673 20.1334 24.6673H15.8667C14.7466 24.6673 14.1866 24.6673 13.7588 24.4493C13.3824 24.2576 13.0765 23.9516 12.8847 23.5753C12.6667 23.1475 12.6667 22.5874 12.6667 21.4673V14.534C12.6667 13.4139 12.6667 12.8538 12.8847 12.426C13.0765 12.0497 13.3824 11.7437 13.7588 11.552C14.1866 11.334 14.7466 11.334 15.8667 11.334H18.0079C18.4971 11.334 18.7417 11.334 18.9719 11.3892C19.176 11.4382 19.371 11.519 19.55 11.6287C19.7518 11.7524 19.9248 11.9253 20.2707 12.2712L22.3962 14.3967C22.7421 14.7426 22.915 14.9156 23.0387 15.1174C23.1484 15.2964 23.2292 15.4914 23.2782 15.6955C23.3334 15.9257 23.3334 16.1703 23.3334 16.6595Z" stroke="#0068B3" stroke-width="1.33333" stroke-linecap="round" stroke-linejoin="round"/>
<rect x="2" y="2" width="32" height="32" rx="16" stroke="#E6F0F7" stroke-width="4"/>
</svg>
